<mxfile host="app.diagrams.net" modified="2023-05-16T18:09:41.135Z" agent="Mozilla/5.0 (Windows NT 10.0; Win64; x64) AppleWebKit/537.36 (KHTML, like Gecko) Chrome/113.0.0.0 Safari/537.36" etag="VZX_3wN_XINixjYS4y-g" version="21.3.0" type="device">
  <diagram name="Страница 1" id="fC1j0XgX_sBxdxETazhg">
    <mxGraphModel dx="1050" dy="591" grid="0" gridSize="10" guides="1" tooltips="1" connect="1" arrows="1" fold="1" page="0" pageScale="1" pageWidth="827" pageHeight="1169" math="0" shadow="0">
      <root>
        <mxCell id="0" />
        <mxCell id="1" parent="0" />
        <mxCell id="xC186sU1FbDaQdgUheFr-1" value="&lt;b&gt;Мастер и Маргарита&lt;/b&gt;" style="ellipse;whiteSpace=wrap;html=1;aspect=fixed;" vertex="1" parent="1">
          <mxGeometry x="80" y="40" width="80" height="80" as="geometry" />
        </mxCell>
        <mxCell id="xC186sU1FbDaQdgUheFr-2" value="&lt;b&gt;1&lt;/b&gt;" style="ellipse;whiteSpace=wrap;html=1;aspect=fixed;" vertex="1" parent="1">
          <mxGeometry x="110" y="40" width="20" height="20" as="geometry" />
        </mxCell>
        <mxCell id="xC186sU1FbDaQdgUheFr-3" value="&lt;b&gt;Преступление и наказание&lt;/b&gt;" style="ellipse;whiteSpace=wrap;html=1;aspect=fixed;" vertex="1" parent="1">
          <mxGeometry x="180" y="40" width="80" height="80" as="geometry" />
        </mxCell>
        <mxCell id="xC186sU1FbDaQdgUheFr-4" value="&lt;b&gt;Война и мир&lt;/b&gt;" style="ellipse;whiteSpace=wrap;html=1;aspect=fixed;" vertex="1" parent="1">
          <mxGeometry x="290" y="40" width="80" height="80" as="geometry" />
        </mxCell>
        <mxCell id="xC186sU1FbDaQdgUheFr-5" value="&lt;b&gt;Анна Каренина&lt;/b&gt;" style="ellipse;whiteSpace=wrap;html=1;aspect=fixed;" vertex="1" parent="1">
          <mxGeometry x="400" y="40" width="80" height="80" as="geometry" />
        </mxCell>
        <mxCell id="xC186sU1FbDaQdgUheFr-6" value="&lt;b&gt;1984&lt;/b&gt;" style="ellipse;whiteSpace=wrap;html=1;aspect=fixed;" vertex="1" parent="1">
          <mxGeometry x="510" y="40" width="80" height="80" as="geometry" />
        </mxCell>
        <mxCell id="xC186sU1FbDaQdgUheFr-7" value="&lt;b&gt;Горе от ума&lt;/b&gt;" style="ellipse;whiteSpace=wrap;html=1;aspect=fixed;" vertex="1" parent="1">
          <mxGeometry x="80" y="140" width="80" height="80" as="geometry" />
        </mxCell>
        <mxCell id="xC186sU1FbDaQdgUheFr-8" value="&lt;b&gt;Герой нашего времени&lt;/b&gt;" style="ellipse;whiteSpace=wrap;html=1;aspect=fixed;" vertex="1" parent="1">
          <mxGeometry x="180" y="140" width="80" height="80" as="geometry" />
        </mxCell>
        <mxCell id="xC186sU1FbDaQdgUheFr-9" value="&lt;b&gt;Евгений Онегин&lt;/b&gt;" style="ellipse;whiteSpace=wrap;html=1;aspect=fixed;" vertex="1" parent="1">
          <mxGeometry x="290" y="140" width="80" height="80" as="geometry" />
        </mxCell>
        <mxCell id="xC186sU1FbDaQdgUheFr-10" value="&lt;b&gt;Маленький принц&lt;/b&gt;" style="ellipse;whiteSpace=wrap;html=1;aspect=fixed;" vertex="1" parent="1">
          <mxGeometry x="400" y="140" width="80" height="80" as="geometry" />
        </mxCell>
        <mxCell id="xC186sU1FbDaQdgUheFr-11" value="&lt;b&gt;Мертвые души&lt;/b&gt;" style="ellipse;whiteSpace=wrap;html=1;aspect=fixed;" vertex="1" parent="1">
          <mxGeometry x="510" y="140" width="80" height="80" as="geometry" />
        </mxCell>
        <mxCell id="xC186sU1FbDaQdgUheFr-12" value="&lt;b&gt;2&lt;/b&gt;" style="ellipse;whiteSpace=wrap;html=1;aspect=fixed;" vertex="1" parent="1">
          <mxGeometry x="210" y="40" width="20" height="20" as="geometry" />
        </mxCell>
        <mxCell id="xC186sU1FbDaQdgUheFr-13" value="&lt;b&gt;3&lt;/b&gt;" style="ellipse;whiteSpace=wrap;html=1;aspect=fixed;" vertex="1" parent="1">
          <mxGeometry x="320" y="40" width="20" height="20" as="geometry" />
        </mxCell>
        <mxCell id="xC186sU1FbDaQdgUheFr-14" value="&lt;b&gt;4&lt;/b&gt;" style="ellipse;whiteSpace=wrap;html=1;aspect=fixed;" vertex="1" parent="1">
          <mxGeometry x="430" y="40" width="20" height="20" as="geometry" />
        </mxCell>
        <mxCell id="xC186sU1FbDaQdgUheFr-15" value="&lt;b&gt;5&lt;/b&gt;" style="ellipse;whiteSpace=wrap;html=1;aspect=fixed;" vertex="1" parent="1">
          <mxGeometry x="540" y="40" width="20" height="20" as="geometry" />
        </mxCell>
        <mxCell id="xC186sU1FbDaQdgUheFr-16" value="&lt;b&gt;6&lt;/b&gt;" style="ellipse;whiteSpace=wrap;html=1;aspect=fixed;" vertex="1" parent="1">
          <mxGeometry x="110" y="140" width="20" height="20" as="geometry" />
        </mxCell>
        <mxCell id="xC186sU1FbDaQdgUheFr-17" value="&lt;b&gt;7&lt;/b&gt;" style="ellipse;whiteSpace=wrap;html=1;aspect=fixed;" vertex="1" parent="1">
          <mxGeometry x="210" y="140" width="20" height="20" as="geometry" />
        </mxCell>
        <mxCell id="xC186sU1FbDaQdgUheFr-18" value="&lt;b&gt;8&lt;/b&gt;" style="ellipse;whiteSpace=wrap;html=1;aspect=fixed;" vertex="1" parent="1">
          <mxGeometry x="320" y="140" width="20" height="20" as="geometry" />
        </mxCell>
        <mxCell id="xC186sU1FbDaQdgUheFr-19" value="&lt;b&gt;9&lt;/b&gt;" style="ellipse;whiteSpace=wrap;html=1;aspect=fixed;" vertex="1" parent="1">
          <mxGeometry x="430" y="140" width="20" height="20" as="geometry" />
        </mxCell>
        <mxCell id="xC186sU1FbDaQdgUheFr-20" value="&lt;b&gt;10&lt;/b&gt;" style="ellipse;whiteSpace=wrap;html=1;aspect=fixed;" vertex="1" parent="1">
          <mxGeometry x="540" y="140" width="20" height="20" as="geometry" />
        </mxCell>
      </root>
    </mxGraphModel>
  </diagram>
</mxfile>
